<mxfile host="app.diagrams.net" modified="2024-06-06T15:30:37.441Z" agent="Mozilla/5.0 (X11; Linux x86_64; rv:122.0) Gecko/20100101 Firefox/122.0" etag="vfwzm0HmmQz-PNxDkR09" version="24.4.10" type="device">
  <diagram name="Page-1" id="QZSrrCeZXlPZJNOJAAQs">
    <mxGraphModel dx="1434" dy="769" grid="1" gridSize="10" guides="1" tooltips="1" connect="1" arrows="1" fold="1" page="1" pageScale="1" pageWidth="850" pageHeight="1100" math="0" shadow="0">
      <root>
        <mxCell id="0" />
        <mxCell id="1" parent="0" />
        <mxCell id="nj1HNDG_UyyMV2JrM1j5-44" value="&lt;font style=&quot;font-size: 16px;&quot;&gt;Internet&lt;/font&gt;" style="ellipse;shape=cloud;whiteSpace=wrap;html=1;" vertex="1" parent="1">
          <mxGeometry x="140" y="10" width="167.5" height="110" as="geometry" />
        </mxCell>
        <mxCell id="nj1HNDG_UyyMV2JrM1j5-31" value="" style="rounded=1;whiteSpace=wrap;html=1;" vertex="1" parent="1">
          <mxGeometry x="10" y="160" width="820" height="560" as="geometry" />
        </mxCell>
        <mxCell id="nj1HNDG_UyyMV2JrM1j5-27" value="" style="rounded=1;whiteSpace=wrap;html=1;" vertex="1" parent="1">
          <mxGeometry x="40" y="180" width="750" height="300" as="geometry" />
        </mxCell>
        <mxCell id="nj1HNDG_UyyMV2JrM1j5-2" value="" style="rounded=1;whiteSpace=wrap;html=1;" vertex="1" parent="1">
          <mxGeometry x="60" y="200" width="710" height="170" as="geometry" />
        </mxCell>
        <mxCell id="nj1HNDG_UyyMV2JrM1j5-1" value="" style="rounded=1;whiteSpace=wrap;html=1;" vertex="1" parent="1">
          <mxGeometry x="100" y="210" width="265" height="100" as="geometry" />
        </mxCell>
        <mxCell id="nj1HNDG_UyyMV2JrM1j5-3" value="&lt;font style=&quot;font-size: 20px;&quot;&gt;Mapbox GL JS&lt;br&gt;&lt;/font&gt;" style="text;html=1;align=center;verticalAlign=middle;whiteSpace=wrap;rounded=0;" vertex="1" parent="1">
          <mxGeometry x="120" y="245" width="225" height="30" as="geometry" />
        </mxCell>
        <mxCell id="nj1HNDG_UyyMV2JrM1j5-4" value="" style="rounded=1;whiteSpace=wrap;html=1;" vertex="1" parent="1">
          <mxGeometry x="400" y="210" width="320" height="100" as="geometry" />
        </mxCell>
        <mxCell id="nj1HNDG_UyyMV2JrM1j5-5" value="&lt;font style=&quot;font-size: 20px;&quot;&gt;HTML5 + CSS3 + Bootstrap 5&lt;/font&gt;" style="text;html=1;align=center;verticalAlign=middle;whiteSpace=wrap;rounded=0;" vertex="1" parent="1">
          <mxGeometry x="410" y="227.5" width="310" height="65" as="geometry" />
        </mxCell>
        <mxCell id="nj1HNDG_UyyMV2JrM1j5-9" value="&lt;font style=&quot;font-size: 20px;&quot;&gt;Express JS&lt;/font&gt;" style="text;html=1;align=center;verticalAlign=middle;whiteSpace=wrap;rounded=0;" vertex="1" parent="1">
          <mxGeometry x="320" y="330" width="130" height="30" as="geometry" />
        </mxCell>
        <mxCell id="nj1HNDG_UyyMV2JrM1j5-11" value="&lt;font style=&quot;font-size: 20px;&quot;&gt;Node JS&lt;/font&gt;" style="text;html=1;align=center;verticalAlign=middle;whiteSpace=wrap;rounded=0;" vertex="1" parent="1">
          <mxGeometry x="330" y="420" width="130" height="30" as="geometry" />
        </mxCell>
        <mxCell id="nj1HNDG_UyyMV2JrM1j5-18" value="&lt;font style=&quot;font-size: 20px;&quot;&gt;JSON&lt;/font&gt;" style="shape=cylinder3;whiteSpace=wrap;html=1;boundedLbl=1;backgroundOutline=1;size=15;" vertex="1" parent="1">
          <mxGeometry x="550" y="510" width="105" height="160" as="geometry" />
        </mxCell>
        <mxCell id="nj1HNDG_UyyMV2JrM1j5-29" value="" style="endArrow=classic;html=1;rounded=0;exitX=-0.037;exitY=0.353;exitDx=0;exitDy=0;exitPerimeter=0;entryX=0.483;entryY=1.017;entryDx=0;entryDy=0;entryPerimeter=0;" edge="1" parent="1" source="nj1HNDG_UyyMV2JrM1j5-18" target="nj1HNDG_UyyMV2JrM1j5-27">
          <mxGeometry width="50" height="50" relative="1" as="geometry">
            <mxPoint x="410" y="530" as="sourcePoint" />
            <mxPoint x="380" y="630" as="targetPoint" />
          </mxGeometry>
        </mxCell>
        <mxCell id="nj1HNDG_UyyMV2JrM1j5-32" value="&lt;font style=&quot;font-size: 22px;&quot;&gt;Linux Server&lt;/font&gt;" style="text;html=1;align=center;verticalAlign=middle;whiteSpace=wrap;rounded=0;" vertex="1" parent="1">
          <mxGeometry x="30" y="490" width="160" height="50" as="geometry" />
        </mxCell>
        <mxCell id="nj1HNDG_UyyMV2JrM1j5-34" value="&lt;font style=&quot;font-size: 16px;&quot;&gt;Copernicus Marine&lt;/font&gt;" style="ellipse;shape=cloud;whiteSpace=wrap;html=1;" vertex="1" parent="1">
          <mxGeometry x="82.5" y="770" width="300" height="120" as="geometry" />
        </mxCell>
        <mxCell id="nj1HNDG_UyyMV2JrM1j5-35" value="" style="text;html=1;align=center;verticalAlign=middle;whiteSpace=wrap;rounded=0;fillColor=none;strokeColor=default;" vertex="1" parent="1">
          <mxGeometry x="50" y="550" width="430" height="120" as="geometry" />
        </mxCell>
        <mxCell id="nj1HNDG_UyyMV2JrM1j5-36" value="" style="endArrow=classic;html=1;rounded=0;exitX=0.4;exitY=0.1;exitDx=0;exitDy=0;exitPerimeter=0;entryX=0.5;entryY=1;entryDx=0;entryDy=0;" edge="1" parent="1" source="nj1HNDG_UyyMV2JrM1j5-34" target="nj1HNDG_UyyMV2JrM1j5-35">
          <mxGeometry width="50" height="50" relative="1" as="geometry">
            <mxPoint x="430" y="580" as="sourcePoint" />
            <mxPoint x="480" y="530" as="targetPoint" />
          </mxGeometry>
        </mxCell>
        <mxCell id="nj1HNDG_UyyMV2JrM1j5-37" value="NetCDF" style="rounded=0;whiteSpace=wrap;html=1;" vertex="1" parent="1">
          <mxGeometry x="70" y="597.5" width="120" height="60" as="geometry" />
        </mxCell>
        <mxCell id="nj1HNDG_UyyMV2JrM1j5-38" value="CSV" style="rounded=0;whiteSpace=wrap;html=1;" vertex="1" parent="1">
          <mxGeometry x="210" y="597.5" width="120" height="60" as="geometry" />
        </mxCell>
        <mxCell id="nj1HNDG_UyyMV2JrM1j5-39" value="Script processing" style="rounded=0;whiteSpace=wrap;html=1;" vertex="1" parent="1">
          <mxGeometry x="345" y="597.5" width="120" height="60" as="geometry" />
        </mxCell>
        <mxCell id="nj1HNDG_UyyMV2JrM1j5-40" value="CRON" style="text;html=1;align=center;verticalAlign=middle;whiteSpace=wrap;rounded=0;" vertex="1" parent="1">
          <mxGeometry x="235" y="560" width="60" height="30" as="geometry" />
        </mxCell>
        <mxCell id="nj1HNDG_UyyMV2JrM1j5-42" value="" style="endArrow=classic;html=1;rounded=0;entryX=0;entryY=0.5;entryDx=0;entryDy=0;entryPerimeter=0;exitX=1;exitY=0.5;exitDx=0;exitDy=0;" edge="1" parent="1" source="nj1HNDG_UyyMV2JrM1j5-35" target="nj1HNDG_UyyMV2JrM1j5-18">
          <mxGeometry width="50" height="50" relative="1" as="geometry">
            <mxPoint x="430" y="580" as="sourcePoint" />
            <mxPoint x="480" y="530" as="targetPoint" />
          </mxGeometry>
        </mxCell>
        <mxCell id="nj1HNDG_UyyMV2JrM1j5-43" value="" style="shape=actor;whiteSpace=wrap;html=1;" vertex="1" parent="1">
          <mxGeometry x="480" y="20" width="60" height="70" as="geometry" />
        </mxCell>
        <mxCell id="nj1HNDG_UyyMV2JrM1j5-48" value="Client" style="text;html=1;align=center;verticalAlign=middle;whiteSpace=wrap;rounded=0;" vertex="1" parent="1">
          <mxGeometry x="480" y="90" width="60" height="30" as="geometry" />
        </mxCell>
        <mxCell id="nj1HNDG_UyyMV2JrM1j5-49" value="" style="endArrow=classic;html=1;rounded=0;exitX=1;exitY=0.5;exitDx=0;exitDy=0;entryX=0;entryY=0.5;entryDx=0;entryDy=0;" edge="1" parent="1" source="nj1HNDG_UyyMV2JrM1j5-37" target="nj1HNDG_UyyMV2JrM1j5-38">
          <mxGeometry width="50" height="50" relative="1" as="geometry">
            <mxPoint x="420" y="500" as="sourcePoint" />
            <mxPoint x="470" y="450" as="targetPoint" />
          </mxGeometry>
        </mxCell>
        <mxCell id="nj1HNDG_UyyMV2JrM1j5-50" value="" style="endArrow=classic;html=1;rounded=0;exitX=1;exitY=0.5;exitDx=0;exitDy=0;entryX=0;entryY=0.5;entryDx=0;entryDy=0;" edge="1" parent="1" source="nj1HNDG_UyyMV2JrM1j5-38" target="nj1HNDG_UyyMV2JrM1j5-39">
          <mxGeometry width="50" height="50" relative="1" as="geometry">
            <mxPoint x="420" y="500" as="sourcePoint" />
            <mxPoint x="470" y="450" as="targetPoint" />
          </mxGeometry>
        </mxCell>
        <mxCell id="nj1HNDG_UyyMV2JrM1j5-52" value="&lt;font style=&quot;font-size: 20px;&quot;&gt;Script processing&lt;/font&gt;" style="text;html=1;align=center;verticalAlign=middle;whiteSpace=wrap;rounded=0;strokeColor=default;" vertex="1" parent="1">
          <mxGeometry x="690" y="510" width="120" height="60" as="geometry" />
        </mxCell>
        <mxCell id="nj1HNDG_UyyMV2JrM1j5-53" value="" style="endArrow=classic;html=1;rounded=0;exitX=0.5;exitY=1;exitDx=0;exitDy=0;entryX=0;entryY=0;entryDx=0;entryDy=0;" edge="1" parent="1" source="nj1HNDG_UyyMV2JrM1j5-4" target="nj1HNDG_UyyMV2JrM1j5-52">
          <mxGeometry width="50" height="50" relative="1" as="geometry">
            <mxPoint x="420" y="410" as="sourcePoint" />
            <mxPoint x="470" y="360" as="targetPoint" />
          </mxGeometry>
        </mxCell>
        <mxCell id="nj1HNDG_UyyMV2JrM1j5-54" value="&lt;font style=&quot;font-size: 16px;&quot;&gt;&amp;lt;request&amp;gt;&lt;/font&gt;" style="edgeLabel;html=1;align=center;verticalAlign=middle;resizable=0;points=[];" vertex="1" connectable="0" parent="nj1HNDG_UyyMV2JrM1j5-53">
          <mxGeometry x="0.0003" y="-1" relative="1" as="geometry">
            <mxPoint as="offset" />
          </mxGeometry>
        </mxCell>
        <mxCell id="nj1HNDG_UyyMV2JrM1j5-55" value="" style="endArrow=classic;html=1;rounded=0;exitX=0.5;exitY=1;exitDx=0;exitDy=0;entryX=1;entryY=0;entryDx=0;entryDy=112.5;entryPerimeter=0;" edge="1" parent="1" source="nj1HNDG_UyyMV2JrM1j5-52" target="nj1HNDG_UyyMV2JrM1j5-18">
          <mxGeometry width="50" height="50" relative="1" as="geometry">
            <mxPoint x="420" y="410" as="sourcePoint" />
            <mxPoint x="470" y="360" as="targetPoint" />
          </mxGeometry>
        </mxCell>
        <mxCell id="nj1HNDG_UyyMV2JrM1j5-56" value="" style="endArrow=classic;html=1;rounded=0;exitX=1.01;exitY=0.794;exitDx=0;exitDy=0;exitPerimeter=0;entryX=0.658;entryY=1.067;entryDx=0;entryDy=0;entryPerimeter=0;" edge="1" parent="1" source="nj1HNDG_UyyMV2JrM1j5-18" target="nj1HNDG_UyyMV2JrM1j5-52">
          <mxGeometry width="50" height="50" relative="1" as="geometry">
            <mxPoint x="420" y="410" as="sourcePoint" />
            <mxPoint x="470" y="360" as="targetPoint" />
          </mxGeometry>
        </mxCell>
        <mxCell id="nj1HNDG_UyyMV2JrM1j5-57" value="" style="endArrow=classic;html=1;rounded=0;entryX=0.75;entryY=1;entryDx=0;entryDy=0;exitX=0.5;exitY=0;exitDx=0;exitDy=0;" edge="1" parent="1" source="nj1HNDG_UyyMV2JrM1j5-52" target="nj1HNDG_UyyMV2JrM1j5-4">
          <mxGeometry width="50" height="50" relative="1" as="geometry">
            <mxPoint x="420" y="500" as="sourcePoint" />
            <mxPoint x="470" y="450" as="targetPoint" />
          </mxGeometry>
        </mxCell>
        <mxCell id="nj1HNDG_UyyMV2JrM1j5-58" value="&lt;font style=&quot;font-size: 16px;&quot;&gt;&amp;lt;JSON response&amp;gt;&lt;/font&gt;" style="edgeLabel;html=1;align=center;verticalAlign=middle;resizable=0;points=[];" vertex="1" connectable="0" parent="nj1HNDG_UyyMV2JrM1j5-57">
          <mxGeometry x="-0.2067" y="1" relative="1" as="geometry">
            <mxPoint x="26" y="19" as="offset" />
          </mxGeometry>
        </mxCell>
        <mxCell id="nj1HNDG_UyyMV2JrM1j5-59" value="" style="endArrow=classic;startArrow=classic;html=1;rounded=0;entryX=0.8;entryY=0.8;entryDx=0;entryDy=0;entryPerimeter=0;exitX=0.5;exitY=0;exitDx=0;exitDy=0;" edge="1" parent="1" source="nj1HNDG_UyyMV2JrM1j5-2" target="nj1HNDG_UyyMV2JrM1j5-44">
          <mxGeometry width="50" height="50" relative="1" as="geometry">
            <mxPoint x="420" y="320" as="sourcePoint" />
            <mxPoint x="470" y="270" as="targetPoint" />
          </mxGeometry>
        </mxCell>
        <mxCell id="nj1HNDG_UyyMV2JrM1j5-60" value="" style="endArrow=classic;startArrow=classic;html=1;rounded=0;entryX=0.1;entryY=0.5;entryDx=0;entryDy=0;entryPerimeter=0;exitX=0.875;exitY=0.5;exitDx=0;exitDy=0;exitPerimeter=0;" edge="1" parent="1" source="nj1HNDG_UyyMV2JrM1j5-44" target="nj1HNDG_UyyMV2JrM1j5-43">
          <mxGeometry width="50" height="50" relative="1" as="geometry">
            <mxPoint x="420" y="320" as="sourcePoint" />
            <mxPoint x="470" y="270" as="targetPoint" />
          </mxGeometry>
        </mxCell>
        <mxCell id="nj1HNDG_UyyMV2JrM1j5-61" value="&lt;font style=&quot;font-size: 16px;&quot;&gt;Openweather&lt;/font&gt;" style="ellipse;shape=cloud;whiteSpace=wrap;html=1;" vertex="1" parent="1">
          <mxGeometry x="430" y="770" width="300" height="120" as="geometry" />
        </mxCell>
        <mxCell id="nj1HNDG_UyyMV2JrM1j5-62" value="" style="endArrow=classic;html=1;rounded=0;exitX=0.625;exitY=0.2;exitDx=0;exitDy=0;exitPerimeter=0;entryX=0.5;entryY=1;entryDx=0;entryDy=0;entryPerimeter=0;" edge="1" parent="1" source="nj1HNDG_UyyMV2JrM1j5-61" target="nj1HNDG_UyyMV2JrM1j5-18">
          <mxGeometry width="50" height="50" relative="1" as="geometry">
            <mxPoint x="420" y="590" as="sourcePoint" />
            <mxPoint x="470" y="540" as="targetPoint" />
          </mxGeometry>
        </mxCell>
        <mxCell id="nj1HNDG_UyyMV2JrM1j5-63" value="&lt;font style=&quot;font-size: 16px;&quot;&gt;&amp;lt;request JSON to JSON&amp;gt;&lt;/font&gt;" style="edgeLabel;html=1;align=center;verticalAlign=middle;resizable=0;points=[];" vertex="1" connectable="0" parent="nj1HNDG_UyyMV2JrM1j5-62">
          <mxGeometry x="-0.2004" y="-4" relative="1" as="geometry">
            <mxPoint as="offset" />
          </mxGeometry>
        </mxCell>
      </root>
    </mxGraphModel>
  </diagram>
</mxfile>
